<svg width="16" height="5" viewBox="0 0 16 5" fill="none" xmlns="http://www.w3.org/2000/svg">
<path fill-rule="evenodd" clip-rule="evenodd" d="M2.16667 4.16668C3.08714 4.16668 3.83333 3.42051 3.83333 2.50001C3.83333 1.57951 3.08714 0.833344 2.16667 0.833344C1.24619 0.833344 0.5 1.57951 0.5 2.50001C0.5 3.42051 1.24619 4.16668 2.16667 4.16668ZM8 4.16668C8.9205 4.16668 9.66667 3.42051 9.66667 2.50001C9.66667 1.57951 8.9205 0.833344 8 0.833344C7.0795 0.833344 6.33333 1.57951 6.33333 2.50001C6.33333 3.42051 7.0795 4.16668 8 4.16668ZM15.5 2.50001C15.5 3.42051 14.7538 4.16668 13.8333 4.16668C12.9128 4.16668 12.1667 3.42051 12.1667 2.50001C12.1667 1.57951 12.9128 0.833344 13.8333 0.833344C14.7538 0.833344 15.5 1.57951 15.5 2.50001Z" fill="black"/>
</svg>
