<svg width="16" height="17" viewBox="0 0 16 17" fill="none" xmlns="http://www.w3.org/2000/svg">
<path fill-rule="evenodd" clip-rule="evenodd" d="M4 2.96667V3.63334H3.33C2.59467 3.63334 2 4.22867 2 4.96267V12.9707C2 13.704 2.59533 14.3 3.33 14.3H12.67C13.4053 14.3 14 13.7047 14 12.9707V4.96267C14 4.23 13.4047 3.63334 12.67 3.63334H12V2.96667C12 2.59867 11.7013 2.3 11.3333 2.3C10.9653 2.3 10.6667 2.59867 10.6667 2.96667V3.63334H5.33333V2.96667C5.33333 2.59867 5.03467 2.3 4.66667 2.3C4.29867 2.3 4 2.59867 4 2.96667ZM3.5 6.68067V12.112C3.5 12.482 3.796 12.776 4.162 12.776H11.8387C12.2 12.776 12.5 12.4787 12.5 12.112V6.68067H3.5ZM6 8.96667V7.63267H4.66667V8.96667H6ZM11.3333 7.63267V8.96667H10V7.63267H11.3333ZM7.33333 8.96667H8.66733V7.63267H7.33333V8.96667ZM4.66667 11.6333V10.3H6V11.6333H4.66667ZM7.33333 11.6333H8.66733V10.3H7.33333V11.6333ZM11.3333 10.3V11.6333H10V10.3H11.3333Z" fill="#8C9BAB"/>
</svg>
