<svg width="7" height="11" viewBox="0 0 7 11" fill="none" xmlns="http://www.w3.org/2000/svg">
<path fill-rule="evenodd" clip-rule="evenodd" d="M6.15732 8.18649C6.26612 8.29379 6.35242 8.42149 6.41132 8.5624C6.47032 8.7033 6.50062 8.85449 6.50062 9.00729C6.50062 9.15999 6.47032 9.3112 6.41132 9.4521C6.35242 9.59299 6.26612 9.72079 6.15732 9.82799C5.93682 10.0457 5.63942 10.1677 5.32962 10.1677C5.01972 10.1677 4.72232 10.0457 4.50182 9.82799L1.04262 6.39799C0.923432 6.27979 0.828792 6.13909 0.764212 5.98419C0.699632 5.82919 0.666382 5.66289 0.666382 5.49499C0.666382 5.32709 0.699632 5.16089 0.764212 5.00589C0.828792 4.85089 0.923432 4.71019 1.04262 4.59199L4.49012 1.17368C4.71072 0.955674 5.00832 0.833405 5.31852 0.833405C5.62862 0.833405 5.92622 0.955674 6.14682 1.17368C6.25562 1.28092 6.34192 1.4087 6.40082 1.54959C6.45982 1.69049 6.49012 1.84169 6.49012 1.99439C6.49012 2.14719 6.45982 2.29839 6.40082 2.43929C6.34192 2.58019 6.25562 2.70799 6.14682 2.81519L3.44252 5.49499L6.15732 8.18649Z" fill="#948873"/>
</svg>
