<svg width="16" height="17" viewBox="0 0 16 17" fill="none" xmlns="http://www.w3.org/2000/svg">
<path fill-rule="evenodd" clip-rule="evenodd" d="M2.58597 14.329C2.7717 14.5148 2.99221 14.6622 3.23492 14.7628C3.47762 14.8633 3.73776 14.9151 4.00047 14.9151C4.26318 14.9151 4.52332 14.8633 4.76602 14.7628C5.00873 14.6622 5.22924 14.5148 5.41497 14.329L2.58497 11.5C2.39917 11.6857 2.25178 11.9062 2.15122 12.1489C2.05065 12.3917 1.9989 12.6518 1.9989 12.9145C1.9989 13.1772 2.05065 13.4374 2.15122 13.6801C2.25178 13.9228 2.40017 14.1433 2.58597 14.329ZM7.38397 1.978C7.85243 1.50875 8.40895 1.13663 9.02158 0.883001C9.63422 0.629367 10.2909 0.499211 10.954 0.500004C11.926 0.500004 12.899 0.780004 13.742 1.339C13.762 1.313 13.785 1.289 13.808 1.265C13.9043 1.16644 14.0197 1.08862 14.1472 1.03633C14.2747 0.98405 14.4116 0.958411 14.5493 0.960992C14.6871 0.963574 14.8229 0.994321 14.9484 1.05134C15.0738 1.10837 15.1863 1.19046 15.2788 1.29256C15.3713 1.39467 15.442 1.51463 15.4864 1.64507C15.5309 1.77551 15.5482 1.91366 15.5372 2.05103C15.5263 2.18839 15.4873 2.32206 15.4228 2.44382C15.3583 2.56558 15.2695 2.67284 15.162 2.759C15.8046 3.72976 16.0919 4.8928 15.9752 6.05112C15.8586 7.20944 15.3452 8.29184 14.522 9.115L13.797 9.84C13.015 10.623 11.984 12.05 11.485 13.047L9.97597 16.063C9.72697 16.563 9.20297 16.647 8.80497 16.25L0.24897 7.695C-0.14803 7.298 -0.0590306 6.771 0.435969 6.523L3.45297 5.015C4.44197 4.521 5.87297 3.489 6.65897 2.703L7.38397 1.978ZM10.123 11.608C10.64 10.633 11.691 9.212 12.477 8.426L13.202 7.7C13.6984 7.20322 14.0081 6.55023 14.0786 5.85144C14.1491 5.15266 13.9762 4.45096 13.589 3.865C13.399 3.579 12.871 3.099 12.73 3.005C12.2308 2.67484 11.6454 2.49918 11.047 2.5C10.6466 2.49937 10.25 2.57785 9.87998 2.73093C9.50999 2.884 9.17389 3.10866 8.89097 3.392L7.94097 4.343C7.15697 5.128 5.72197 6.163 4.73997 6.654L2.99997 7.524L9.06997 13.593L10.123 11.608Z" fill="#9FADBC"/>
</svg>
