<svg width="12" height="13" viewBox="0 0 12 13" fill="none" xmlns="http://www.w3.org/2000/svg">
<path d="M6 0.300003C5.6318 0.300003 5.33333 0.598483 5.33333 0.96667V5.63334H0.666667C0.29848 5.63334 0 5.9318 0 6.3C0 6.6682 0.29848 6.96667 0.666667 6.96667H5.33333V11.6333C5.33333 12.0015 5.6318 12.3 6 12.3C6.3682 12.3 6.66667 12.0015 6.66667 11.6333V6.96667H11.3333C11.7015 6.96667 12 6.6682 12 6.3C12 5.9318 11.7015 5.63334 11.3333 5.63334H6.66667V0.96667C6.66667 0.598483 6.3682 0.300003 6 0.300003Z" fill="#9FADBC"/>
</svg>
