<svg width="17" height="17" viewBox="0 0 17 17" fill="none" xmlns="http://www.w3.org/2000/svg">
<path fill-rule="evenodd" clip-rule="evenodd" d="M5.39663 4.03335C5.39663 3.29697 5.99358 2.70001 6.72996 2.70001H10.73C11.4664 2.70001 12.0633 3.29697 12.0633 4.03335V4.70001H13.3966V14.0333H4.06329V4.70001H5.39663V4.03335ZM6.72996 4.70001H10.73V4.03335H6.72996V4.70001ZM5.39663 6.70001C5.39663 6.33183 5.69511 6.03335 6.06329 6.03335H7.39663C7.76483 6.03335 8.06329 6.33183 8.06329 6.70001V11.3667C8.06329 11.7349 7.76483 12.0333 7.39663 12.0333H6.06329C5.69511 12.0333 5.39663 11.7349 5.39663 11.3667V6.70001ZM10.0633 6.03335C9.69509 6.03335 9.39663 6.33183 9.39663 6.70001V10.0333C9.39663 10.4015 9.69509 10.7 10.0633 10.7H11.3966C11.7648 10.7 12.0633 10.4015 12.0633 10.0333V6.70001C12.0633 6.33183 11.7648 6.03335 11.3966 6.03335H10.0633Z" fill="#1D2125"/>
<path d="M3.39663 4.70001C2.66025 4.70001 2.06329 5.29697 2.06329 6.03335V12.7C2.06329 13.4364 2.66025 14.0333 3.39663 14.0333V4.70001Z" fill="#1D2125"/>
<path d="M14.0633 14.0333V4.70001C14.7997 4.70001 15.3966 5.29697 15.3966 6.03335V12.7C15.3966 13.4364 14.7997 14.0333 14.0633 14.0333Z" fill="#1D2125"/>
</svg>
