<svg width="14" height="13" viewBox="0 0 14 13" fill="none" xmlns="http://www.w3.org/2000/svg">
<path d="M11.0273 0.270064C11.6911 0.197057 12.3835 0.371444 12.936 0.923971L11.9932 1.86678C11.7728 1.64638 11.5034 1.55556 11.1671 1.59255C10.7995 1.63297 10.3573 1.8083 9.85906 2.09026C9.36813 2.36813 8.87466 2.71903 8.405 3.06359C8.33426 3.1155 8.2632 3.1679 8.19233 3.2202C7.813 3.50004 7.43773 3.77687 7.13013 3.95918C6.80053 4.15454 6.45086 4.14646 6.24026 4.12542C6.01891 4.10331 5.49289 4.09831 4.65568 4.37898C4.13742 4.55273 3.50411 4.96634 2.96398 5.37846L2.92258 5.41019C3.08719 5.44472 3.26081 5.47639 3.43508 5.50506C3.77399 5.56086 4.10082 5.60286 4.34395 5.63092C4.46516 5.64492 4.56472 5.65539 4.63353 5.66226C4.66792 5.66572 4.69459 5.66832 4.71238 5.66999L4.73226 5.67186L4.7379 5.67232L5.33718 6.40686L5.33691 6.41052L5.3353 6.42559C5.33386 6.43932 5.33172 6.46026 5.3291 6.48752C5.32386 6.54212 5.31677 6.62172 5.3096 6.71912C5.2952 6.91492 5.2809 7.17752 5.28032 7.45086C5.27972 7.72832 5.2934 7.99579 5.32843 8.20866C5.35313 8.35872 5.38066 8.43086 5.3902 8.45586C5.39284 8.46279 5.39355 8.46646 5.39355 8.46646C5.39355 8.46646 5.39721 8.46712 5.40414 8.46979C5.42914 8.47933 5.50126 8.50686 5.65134 8.53159C5.86418 8.56659 6.13166 8.58026 6.40913 8.57966C6.68246 8.57906 6.94513 8.56479 7.14093 8.55039L7.45273 8.52272L8.1876 9.12199L8.22906 9.51606C8.25713 9.75919 8.29913 10.086 8.35493 10.4249C8.3836 10.5992 8.41533 10.7728 8.4498 10.9374L8.48153 10.896C8.89366 10.3559 9.30726 9.72259 9.481 9.20432C9.76166 8.36712 9.75666 7.84106 9.7346 7.61972C9.71353 7.40912 9.70546 7.05946 9.9008 6.72986C10.0831 6.42226 10.3599 6.04706 10.6398 5.66766C10.6921 5.59679 10.7445 5.52572 10.7964 5.45499C11.141 4.98531 11.4919 4.49188 11.7697 4.00094C12.0517 3.50276 12.227 3.06044 12.2675 2.69292C12.3045 2.35657 12.2136 2.08718 11.9932 1.86678L12.936 0.923971C13.4885 1.4765 13.6629 2.16888 13.5899 2.83272C13.5203 3.46539 13.2429 4.09415 12.9269 4.6525C12.6068 5.21812 12.2145 5.76666 11.868 6.23892C11.8093 6.31892 11.7526 6.39592 11.6979 6.47012C11.4231 6.84319 11.201 7.14459 11.0559 7.38559C11.0542 7.40232 11.0535 7.43272 11.0585 7.48179C11.1002 7.89979 11.08 8.61506 10.7423 9.62232C10.4945 10.3617 9.96426 11.1415 9.53793 11.7002C9.31826 11.9881 9.11286 12.2343 8.96226 12.4086C8.8868 12.4959 8.82473 12.5657 8.78093 12.6143C8.759 12.6385 8.74166 12.6575 8.72953 12.6707L8.71113 12.6907L8.70926 12.6927C8.58586 12.8247 8.4142 12.9014 8.23386 12.9049C8.05353 12.9083 7.87986 12.8384 7.7526 12.7111C7.60873 12.5673 7.5142 12.3885 7.45073 12.2451C7.3826 12.0912 7.3254 11.9197 7.27673 11.7483C7.17933 11.4051 7.10186 11.0099 7.04206 10.6465C6.99773 10.3769 6.9618 10.1167 6.93406 9.89579C6.77326 9.90386 6.59306 9.90973 6.40626 9.91012C6.0958 9.91079 5.74594 9.89646 5.42978 9.84439C5.15475 9.79912 4.7284 9.68692 4.45074 9.40926C4.17308 9.13159 4.06086 8.70526 4.0156 8.43019C3.96356 8.11406 3.94918 7.76426 3.94985 7.45372C3.95026 7.26692 3.95617 7.08672 3.96423 6.92592C3.74334 6.89826 3.4831 6.86226 3.21352 6.81792C2.85014 6.75812 2.45491 6.68066 2.11167 6.58326C1.94026 6.53459 1.76878 6.47739 1.61487 6.40926C1.47155 6.34579 1.29276 6.25126 1.14888 6.10739C1.02162 5.98012 0.951716 5.80646 0.95517 5.62612C0.958623 5.44579 1.03514 5.27426 1.1672 5.15086L1.16934 5.14887L1.17375 5.14478L1.18924 5.13048C1.20248 5.11831 1.22147 5.10097 1.24575 5.07907C1.29428 5.0353 1.36408 4.97318 1.45142 4.89773C1.62577 4.74712 1.87187 4.54174 2.15979 4.32205C2.71846 3.89577 3.49834 3.36556 4.23768 3.1177C5.24493 2.78002 5.96024 2.75979 6.3782 2.80154C6.42726 2.80644 6.45766 2.8058 6.4744 2.80408C6.7154 2.65901 7.0168 2.43694 7.38986 2.16208C7.46406 2.10742 7.54106 2.05066 7.62106 1.99202C8.09333 1.64554 8.64186 1.2532 9.20746 0.933078C9.76586 0.617058 10.3946 0.339644 11.0273 0.270064Z" fill="white"/>
</svg>
