<svg width="12" height="13" viewBox="0 0 12 13" fill="none" xmlns="http://www.w3.org/2000/svg">
<path fill-rule="evenodd" clip-rule="evenodd" d="M8.95732 8.55668L11.584 11.23C11.7017 11.3572 11.7652 11.5252 11.7611 11.6984C11.757 11.8716 11.6857 12.0365 11.5622 12.158C11.4387 12.2795 11.2727 12.3482 11.0994 12.3494C10.9262 12.3507 10.7592 12.2844 10.634 12.1647L8.00866 9.49401C6.99569 10.2571 5.73058 10.6068 4.46951 10.4722C3.20843 10.3376 2.04562 9.72878 1.21653 8.76907C0.387444 7.80936 -0.0459721 6.57045 0.00404617 5.3032C0.0540645 4.03595 0.583779 2.83506 1.48593 1.94368C2.38808 1.05231 3.59526 0.537065 4.86302 0.50228C6.13078 0.467495 7.36439 0.915768 8.31406 1.75633C9.26374 2.5969 9.8585 3.76694 9.97794 5.02954C10.0974 6.29214 9.73254 7.55295 8.95732 8.55668ZM4.99999 9.16668C5.97245 9.16668 6.90508 8.78037 7.59271 8.09273C8.28035 7.4051 8.66666 6.47247 8.66666 5.50001C8.66666 4.52755 8.28035 3.59492 7.59271 2.90728C6.90508 2.21965 5.97245 1.83334 4.99999 1.83334C4.02753 1.83334 3.0949 2.21965 2.40726 2.90728C1.71963 3.59492 1.33332 4.52755 1.33332 5.50001C1.33332 6.47247 1.71963 7.4051 2.40726 8.09273C3.0949 8.78037 4.02753 9.16668 4.99999 9.16668Z" fill="#8C9BAB"/>
</svg>
