<svg width="17" height="17" viewBox="0 0 17 17" fill="none" xmlns="http://www.w3.org/2000/svg">
<path fill-rule="evenodd" clip-rule="evenodd" d="M8.25 8.96665C10.0909 8.96665 11.5833 7.47425 11.5833 5.63332C11.5833 3.79237 10.0909 2.29999 8.25 2.29999C6.40905 2.29999 4.91667 3.79237 4.91667 5.63332C4.91667 6.5985 5.32688 7.46785 5.98247 8.07659C3.79289 8.97099 2.25 11.122 2.25 13.6333C2.25 14.0015 2.54848 14.3 2.91667 14.3H8.25C8.6182 14.3 8.91667 14.0015 8.91667 13.6333C8.91667 13.2651 8.6182 12.9667 8.25 12.9667H3.63059C3.95408 10.7051 5.89902 8.96665 8.25 8.96665ZM10.25 5.63332C10.25 6.73789 9.3546 7.63332 8.25 7.63332C7.1454 7.63332 6.25 6.73789 6.25 5.63332C6.25 4.52875 7.1454 3.63332 8.25 3.63332C9.3546 3.63332 10.25 4.52875 10.25 5.63332Z" fill="#172B4D"/>
<path d="M11.5833 9.63331C11.5833 9.26511 11.8818 8.96664 12.25 8.96664C12.6182 8.96664 12.9166 9.26511 12.9166 9.63331V10.9666H14.25C14.6182 10.9666 14.9166 11.2651 14.9166 11.6333C14.9166 12.0015 14.6182 12.3 14.25 12.3H12.9166V13.6333C12.9166 14.0015 12.6182 14.3 12.25 14.3C11.8818 14.3 11.5833 14.0015 11.5833 13.6333V12.3H10.25C9.88178 12.3 9.58331 12.0015 9.58331 11.6333C9.58331 11.2651 9.88178 10.9666 10.25 10.9666H11.5833V9.63331Z" fill="#172B4D"/>
</svg>
