<svg width="16" height="17" viewBox="0 0 16 17" fill="none" xmlns="http://www.w3.org/2000/svg">
<path fill-rule="evenodd" clip-rule="evenodd" d="M8.00111 11.6339C6.1591 11.6339 4.66643 10.1406 4.66643 8.29927C4.66643 6.45725 6.1591 4.96458 8.00111 4.96458C9.84311 4.96458 11.3358 6.45725 11.3358 8.29927C11.3358 10.1406 9.84311 11.6339 8.00111 11.6339ZM13.5798 9.55594C13.0578 9.37461 12.6824 8.88327 12.6824 8.29927C12.6824 7.71527 13.0578 7.22394 13.5791 7.04261C13.7371 6.98794 13.8344 6.82058 13.7891 6.65991C13.6564 6.19058 13.4678 5.74591 13.2318 5.33125C13.1531 5.19258 12.9804 5.14125 12.8331 5.20125C12.5764 5.30658 12.2798 5.33391 11.9724 5.25525C11.5231 5.13925 11.1558 4.77325 11.0371 4.32458C10.9558 4.01591 10.9831 3.71791 11.0878 3.45991C11.1471 3.31325 11.0958 3.14058 10.9571 3.06191C10.5458 2.82925 10.1044 2.64258 9.64045 2.51125C9.47911 2.46591 9.31245 2.56258 9.25778 2.72058C9.07645 3.24258 8.58511 3.61791 8.00111 3.61791C7.41778 3.61791 6.92578 3.24258 6.74511 2.72125C6.68978 2.56325 6.52243 2.46591 6.36177 2.51125C5.88977 2.64458 5.44243 2.83458 5.02577 3.07258C4.89177 3.14925 4.8351 3.31725 4.89377 3.46058C4.99177 3.70125 5.02177 3.97591 4.9591 4.26258C4.85577 4.73325 4.4831 5.12725 4.0171 5.25191C3.71177 5.33391 3.41843 5.30791 3.16377 5.20658C3.0171 5.14791 2.8451 5.19991 2.7671 5.33725C2.53177 5.75191 2.34377 6.19725 2.21177 6.66658C2.16643 6.82591 2.26177 6.99127 2.4171 7.04794C2.9311 7.23327 3.2991 7.72127 3.2991 8.29927C3.2991 8.87727 2.9311 9.36527 2.41643 9.55061C2.2611 9.60661 2.16643 9.77194 2.2111 9.93127C2.3291 10.3493 2.49243 10.7486 2.6931 11.1246C2.77243 11.2726 2.95643 11.3233 3.1091 11.2533C3.50577 11.0713 4.00443 11.0773 4.51177 11.4119C4.58977 11.4633 4.66177 11.5353 4.7131 11.6126C5.06443 12.1453 5.05443 12.6659 4.8451 13.0706C4.76843 13.2193 4.8131 13.4046 4.9571 13.4893C5.3931 13.7453 5.8651 13.9473 6.3631 14.0873C6.52377 14.1326 6.68911 14.0366 6.74311 13.8786C6.92245 13.3546 7.41578 12.9766 8.00111 12.9766C8.58645 12.9766 9.07978 13.3546 9.25911 13.8786C9.31311 14.0359 9.47845 14.1326 9.63911 14.0873C10.1304 13.9493 10.5964 13.7499 11.0284 13.4986C11.1738 13.4139 11.2178 13.2266 11.1398 13.0779C10.9278 12.6726 10.9151 12.1493 11.2671 11.6146C11.3184 11.5373 11.3904 11.4646 11.4684 11.4133C11.9831 11.0726 12.4864 11.0713 12.8851 11.2599C13.0378 11.3319 13.2238 11.2819 13.3038 11.1333C13.5064 10.7573 13.6698 10.3573 13.7891 9.93794C13.8344 9.77727 13.7378 9.61061 13.5798 9.55594Z" fill="#9FADBC"/>
</svg>
