<svg width="16d" height="17" viewBox="0 0 16 17" fill="none" xmlns="http://www.w3.org/2000/svg">
<path fill-rule="evenodd" clip-rule="evenodd" d="M8.01691 2.3C6.17073 2.3 4.67413 3.79239 4.67413 5.63334C4.67413 7.47427 6.17073 8.96667 8.01691 8.96667C9.86305 8.96667 11.3596 7.47427 11.3596 5.63334C11.3596 3.79239 9.86305 2.3 8.01691 2.3ZM6.01123 5.63334C6.01123 6.7379 6.90918 7.63334 8.01691 7.63334C9.12458 7.63334 10.0225 6.7379 10.0225 5.63334C10.0225 4.52877 9.12458 3.63334 8.01691 3.63334C6.90918 3.63334 6.01123 4.52877 6.01123 5.63334Z" fill="#8C9BAB"/>
<path fill-rule="evenodd" clip-rule="evenodd" d="M8.01691 7.63333C11.1868 7.63333 13.7843 10.0778 14.0169 13.1796C13.9147 13.8147 13.3626 14.3 12.6968 14.3H12.6494H3.38445H3.33706C2.67125 14.3 2.11911 13.8147 2.01691 13.1795C2.2495 10.0778 4.8469 7.63333 8.01691 7.63333ZM3.38445 12.9667H12.6494C12.325 10.7051 10.3745 8.96666 8.01691 8.96666C5.65926 8.96666 3.70885 10.7051 3.38445 12.9667ZM12.6967 13.6179V13.6487C12.6968 13.6436 12.6968 13.6385 12.6968 13.6333C12.6968 13.6282 12.6968 13.6231 12.6967 13.6179Z" fill="#8C9BAB"/>
</svg>
