<svg width="16" height="17" viewBox="0 0 16 17" fill="none" xmlns="http://www.w3.org/2000/svg">
<path fill-rule="evenodd" clip-rule="evenodd" d="M2 3.63334C2 2.89696 2.59695 2.3 3.33333 2.3H12.6667C13.4031 2.3 14 2.89696 14 3.63334V12.9667C14 13.7031 13.4031 14.3 12.6667 14.3H3.33333C2.59695 14.3 2 13.7031 2 12.9667V3.63334ZM3.33333 4.3C3.33333 3.93182 3.63181 3.63334 4 3.63334H6.66667C7.03487 3.63334 7.33333 3.93182 7.33333 4.3V10.9667C7.33333 11.3349 7.03487 11.6333 6.66667 11.6333H4C3.63181 11.6333 3.33333 11.3349 3.33333 10.9667V4.3ZM9.33333 3.63334C8.96513 3.63334 8.66667 3.93182 8.66667 4.3V8.3C8.66667 8.6682 8.96513 8.96667 9.33333 8.96667H12C12.3682 8.96667 12.6667 8.6682 12.6667 8.3V4.3C12.6667 3.93182 12.3682 3.63334 12 3.63334H9.33333Z" fill="#8C9BAB"/>
</svg>
