<svg width="14" height="14" viewBox="0 0 14 14" fill="none" xmlns="http://www.w3.org/2000/svg">
<path fill-rule="evenodd" clip-rule="evenodd" d="M3.99664 13.4967L6.99994 11.9177L10.0033 13.4967C10.2039 13.6022 10.4338 13.6386 10.6573 13.6003C11.2184 13.504 11.5953 12.9711 11.4991 12.4099L10.9255 9.06568L13.3552 6.69728C13.5175 6.53901 13.6232 6.33168 13.6558 6.1073C13.7377 5.54385 13.3473 5.02072 12.7839 4.93884L9.42608 4.45092L7.92441 1.40825C7.82408 1.20494 7.65948 1.04037 7.45621 0.94003C6.94561 0.68805 6.32748 0.897677 6.07548 1.40825L4.57382 4.45092L1.21603 4.93884C0.991657 4.97144 0.784297 5.0771 0.626037 5.23946C0.228617 5.64717 0.236957 6.29988 0.64467 6.69728L3.0744 9.06568L2.50082 12.4099C2.46249 12.6333 2.4989 12.8632 2.6044 13.0639C2.86935 13.5679 3.49268 13.7616 3.99664 13.4967ZM11.8971 6.19901L9.44854 8.58581L10.0265 11.956L6.99994 10.3648L3.97331 11.956L4.55134 8.58581L2.10275 6.19901L5.48663 5.7073L6.99994 2.64098L8.51328 5.7073L11.8971 6.19901Z" fill="white"/>
</svg>
