<svg width="18" height="17" viewBox="0 0 18 17" fill="none" xmlns="http://www.w3.org/2000/svg">
<path fill-rule="evenodd" clip-rule="evenodd" d="M0.666687 8.49999C0.666687 3.89721 4.39725 0.166656 9.00002 0.166656C13.6028 0.166656 17.3334 3.89721 17.3334 8.49999C17.3334 13.1027 13.6028 16.8333 9.00002 16.8333C4.39725 16.8333 0.666687 13.1027 0.666687 8.49999ZM2.33335 8.49999C2.33335 12.1823 5.31772 15.1667 9.00002 15.1667C12.6824 15.1667 15.6667 12.1823 15.6667 8.49999C15.6667 4.81769 12.6824 1.83332 9.00002 1.83332C5.31772 1.83332 2.33335 4.81769 2.33335 8.49999ZM5.66669 6.83332C5.66668 4.73651 7.60119 3.09256 9.78244 3.58926C10.9858 3.8626 11.9641 4.8376 12.2416 6.0401C12.6508 7.81424 11.6433 9.40924 10.1324 9.95591C9.96244 10.0167 9.8416 10.1684 9.8416 10.3492V10.1667C9.8416 10.6267 9.4691 11.0001 9.00827 11.0001C8.54827 11.0001 8.17494 10.6267 8.17494 10.1667V9.32257C8.1816 8.86757 8.54994 8.50007 8.99994 8.50007C9.9191 8.50007 10.6666 7.75174 10.6666 6.83341C10.6666 5.91426 9.9191 5.16676 8.99994 5.16676C8.07994 5.16676 7.33281 5.93593 7.33369 6.85591C7.32104 7.30549 6.95245 7.66666 6.50002 7.66666C6.0648 7.66666 5.70715 7.33249 5.6699 6.90682C5.6699 6.90682 5.66669 6.85807 5.66669 6.83332ZM9.00002 13.5C8.54002 13.5 8.16669 13.1267 8.16669 12.6667C8.16669 12.2067 8.54002 11.8333 9.00002 11.8333C9.46002 11.8333 9.83335 12.2067 9.83335 12.6667C9.83335 13.1267 9.46002 13.5 9.00002 13.5Z" fill="#9FADBC"/>
</svg>
