<svg width="16" height="12" viewBox="0 0 16 12" fill="none" xmlns="http://www.w3.org/2000/svg">
<path fill-rule="evenodd" clip-rule="evenodd" d="M1.90497 11.6333C1.0634 11.6333 0.381165 10.9511 0.381165 10.1095V2.49046C0.381165 1.64888 1.0634 0.966646 1.90497 0.966646H14.0955C14.9371 0.966646 15.6192 1.64888 15.6192 2.49046V10.1095C15.6192 10.9511 14.9371 11.6333 14.0955 11.6333H1.90497ZM14.0955 7.06189V5.53807H6.4764V7.06189H14.0955ZM14.0955 4.01427V2.49046H6.4764V4.01427H14.0955ZM14.0955 8.58569V10.1095H6.4764V8.58569H14.0955ZM1.90497 5.53807V7.06189H4.9526V5.53807H1.90497ZM1.90497 8.58569V10.1095H4.9526V8.58569H1.90497ZM1.90497 4.01427V2.49046H4.9526V4.01427H1.90497Z" fill="#8C9BAB"/>
</svg>
