<svg width="14" height="13" viewBox="0 0 14 13" fill="none" xmlns="http://www.w3.org/2000/svg">
<path fill-rule="evenodd" clip-rule="evenodd" d="M7.33654 2.28112C6.93994 2.05113 6.49161 1.90055 6.01321 1.85113C6.47174 1.04426 7.33901 0.5 8.33334 0.5C9.80614 0.5 11 1.69391 11 3.16667C11 3.82789 10.7593 4.43291 10.3609 4.8989C12.3008 5.69687 13.6667 7.6056 13.6667 9.83333C13.6667 10.2015 13.3682 10.5 13 10.5H11.518C11.4119 10.0325 11.2512 9.58567 11.043 9.16667H12.278C11.9928 7.46647 10.635 6.13 8.92421 5.87667C8.97388 5.64787 9.00001 5.41033 9.00001 5.16667C9.00001 4.89272 8.96694 4.62649 8.90468 4.37175C9.35521 4.15779 9.66668 3.69861 9.66668 3.16667C9.66668 2.43029 9.06974 1.83333 8.33334 1.83333C7.93688 1.83333 7.58074 2.00641 7.33654 2.28112ZM5.66668 6.5C6.40308 6.5 7.00001 5.90307 7.00001 5.16667C7.00001 4.43029 6.40308 3.83333 5.66668 3.83333C4.9303 3.83333 4.33334 4.43029 4.33334 5.16667C4.33334 5.90307 4.9303 6.5 5.66668 6.5ZM8.33334 5.16667C8.33334 5.82787 8.09268 6.43293 7.69414 6.89893C9.63414 7.69687 11 9.6056 11 11.8333C11 12.2015 10.7015 12.5 10.3333 12.5H1.00001C0.631824 12.5 0.333344 12.2015 0.333344 11.8333C0.333344 9.6056 1.6992 7.69687 3.63918 6.89893C3.24067 6.43293 3.00001 5.82787 3.00001 5.16667C3.00001 3.69391 4.19392 2.5 5.66668 2.5C7.13941 2.5 8.33334 3.69391 8.33334 5.16667ZM5.66667 7.83333C7.64868 7.83333 9.29401 9.27487 9.61134 11.1667H1.72198C2.03936 9.27487 3.68467 7.83333 5.66667 7.83333Z" fill="white"/>
</svg>
