<svg width="32" height="33" viewBox="0 0 32 33" fill="none" xmlns="http://www.w3.org/2000/svg">
<rect y="0.5" width="32" height="32" fill="url(#paint0_linear_0_95)"/>
<path d="M16.6566 18.2316H13.0336V15.9465H16.6566C17.2165 15.9465 17.6722 15.8553 18.0238 15.673C18.3754 15.4842 18.6325 15.2238 18.7953 14.8918C18.958 14.5598 19.0394 14.1854 19.0394 13.7687C19.0394 13.3456 18.958 12.9517 18.7953 12.5871C18.6325 12.2225 18.3754 11.9295 18.0238 11.7082C17.6722 11.4868 17.2165 11.3762 16.6566 11.3762H14.0492V23.3H11.1195V9.08124H16.6566C17.7699 9.08124 18.7237 9.28306 19.5179 9.68671C20.3187 10.0838 20.9307 10.634 21.3539 11.3371C21.7771 12.0402 21.9886 12.8443 21.9886 13.7492C21.9886 14.6672 21.7771 15.4614 21.3539 16.132C20.9307 16.8026 20.3187 17.3202 19.5179 17.6848C18.7237 18.0493 17.7699 18.2316 16.6566 18.2316Z" fill="#1D2125"/>
<defs>
<linearGradient id="paint0_linear_0_95" x1="16" y1="0.5" x2="16" y2="32.5" gradientUnits="userSpaceOnUse">
<stop stop-color="#4BCE97"/>
<stop offset="1" stop-color="#216E4E"/>
</linearGradient>
</defs>
</svg>
